<?xml version="1.0" encoding="UTF-8"?>
<svg id="_3_Layer" data-name="3 – Layer" xmlns="http://www.w3.org/2000/svg" xmlns:xlink="http://www.w3.org/1999/xlink" viewBox="0 0 1024 1024">
  <defs>
    <style>
      .cls-1 {
        fill: url(#radial-gradient-5);
      }

      .cls-2 {
        fill: url(#radial-gradient-4);
      }

      .cls-3 {
        fill: url(#radial-gradient-3);
      }

      .cls-4 {
        fill: url(#radial-gradient-2);
      }

      .cls-5 {
        fill: url(#radial-gradient);
      }
    </style>
    <radialGradient id="radial-gradient" cx="313.56" cy="368.25" fx="313.56" fy="368.25" r="198.9" gradientTransform="translate(0 1026) scale(1 -1)" gradientUnits="userSpaceOnUse">
      <stop offset="0" stop-color="#fff"/>
      <stop offset=".25" stop-color="#f3f3f3"/>
      <stop offset=".5" stop-color="#b5b5b6"/>
      <stop offset=".7" stop-color="#8e8e8e"/>
      <stop offset=".8" stop-color="#79797a"/>
      <stop offset=".9" stop-color="#636464"/>
      <stop offset="1" stop-color="#515050"/>
    </radialGradient>
    <radialGradient id="radial-gradient-2" cx="103.34" cy="327.47" fx="103.34" fy="327.47" r="171.32" xlink:href="#radial-gradient"/>
    <radialGradient id="radial-gradient-3" cx="536.65" cy="433.17" fx="536.65" fy="433.17" r="166.53" gradientTransform="translate(-668.62 654.95) rotate(-37.53) scale(1.29) skewX(-1.08)" gradientUnits="userSpaceOnUse">
      <stop offset="0" stop-color="#464646"/>
      <stop offset=".25" stop-color="#2d2d2d"/>
      <stop offset=".5" stop-color="#232323"/>
      <stop offset=".7" stop-color="#1a1a1a"/>
      <stop offset=".85" stop-color="#161616"/>
      <stop offset="1" stop-color="#101010"/>
    </radialGradient>
    <radialGradient id="radial-gradient-4" cx="237.63" cy="261.38" fx="237.63" fy="261.38" r="189.3" xlink:href="#radial-gradient"/>
    <radialGradient id="radial-gradient-5" cx="204.58" cy="477.23" fx="204.58" fy="477.23" r="181.18" xlink:href="#radial-gradient"/>
  </defs>
  <g id="Layer_1" data-name="Layer 1">
    <path class="cls-5" d="M488.58,752.15c0-66.66-54.04-120.7-120.7-120.7s-120.7,54.04-120.7,120.7,54.04,120.7,120.7,120.7,120.7-54.04,120.7-120.7Z"/>
    <path class="cls-4" d="M304.83,771.84c0-66.66-54.04-120.7-120.7-120.7s-120.7,54.04-120.7,120.7,54.04,120.7,120.7,120.7,120.7-54.04,120.7-120.7Z"/>
    <path class="cls-3" d="M428.41,646.03c58.08,79.39,43.3,190.17-33.02,247.42-76.32,57.26-185.26,39.31-243.35-40.08s-43.3-190.17,33.02-247.42c76.32-57.26,185.27-39.31,243.35,40.08h0Z"/>
    <path class="cls-2" d="M189,870.75c-2.42-10-2.27-20.22.52-30.48,7.27-26.72,23.17-41.3,38.42-54.86,19.23-17.09,54.62-34.91,96.81-40.3,19.8-2.53,94.47-4.44,114.53,43,6.69,15.81,10.39,33.2,10.39,51.45,0,73-59.18,132.19-132.19,132.19-62.26,0-114.47-43.06-128.49-101.02h0Z"/>
    <path class="cls-1" d="M383.76,665.72c12.46-5.26,30.75-18.19,31.06-25.4.11-2.55.46-4.86.45-7.42-.12-71.06-58.08-128.66-129.14-128.66s-128.67,57.6-128.67,128.67c0,3.27.5,8.06.71,10.94,1.02,13.86,38.03,28.44,44.5,30.24,23.93,6.65,44.36,9.56,84.34,9.4,38.12-.16,73.63-7.99,96.75-17.76h0Z"/>
  </g>
</svg>