<?xml version="1.0" encoding="UTF-8"?>
<svg id="_2_Layer" data-name="2 – Layer" xmlns="http://www.w3.org/2000/svg" xmlns:xlink="http://www.w3.org/1999/xlink" viewBox="0 0 1024 1024">
  <defs>
    <style>
      .cls-1 {
        fill: url(#radial-gradient-3);
      }

      .cls-2 {
        fill: url(#radial-gradient-2);
      }

      .cls-3 {
        fill: url(#radial-gradient);
      }
    </style>
    <radialGradient id="radial-gradient" cx="592.88" cy="283.63" fx="592.88" fy="283.63" r="160.88" gradientTransform="translate(833.54 -327.14) rotate(81.54)" gradientUnits="userSpaceOnUse">
      <stop offset="0" stop-color="#fff"/>
      <stop offset=".25" stop-color="#fff"/>
      <stop offset=".5" stop-color="#d8d8d7"/>
      <stop offset=".7" stop-color="#b3b3b4"/>
      <stop offset=".8" stop-color="#9a9a9a"/>
      <stop offset=".9" stop-color="#7f7f7f"/>
      <stop offset=".95" stop-color="#6c6c6c"/>
      <stop offset="1" stop-color="#5b5b5c"/>
    </radialGradient>
    <radialGradient id="radial-gradient-2" cx="726.99" cy="669.3" fx="726.99" fy="669.3" r="149.91" gradientTransform="translate(-492.7 1026.24) scale(1.33 -1.22)" gradientUnits="userSpaceOnUse">
      <stop offset="0" stop-color="#ed2524"/>
      <stop offset=".25" stop-color="#e21e26"/>
      <stop offset=".5" stop-color="#c12026"/>
      <stop offset=".7" stop-color="#9e1c20"/>
      <stop offset=".8" stop-color="#851619"/>
      <stop offset=".9" stop-color="#630d0d"/>
      <stop offset=".95" stop-color="#4a1111"/>
      <stop offset="1" stop-color="#381212"/>
    </radialGradient>
    <radialGradient id="radial-gradient-3" cx="380.59" cy="286.49" fx="380.59" fy="286.49" r="179.18" gradientTransform="matrix(1,0,0,1,0,0)" xlink:href="#radial-gradient"/>
  </defs>
  <circle class="cls-3" cx="606.47" cy="319.78" r="139.57" transform="translate(200.94 872.6) rotate(-81.54)"/>
  <path class="cls-2" d="M507.34,84.77c47.45,0,90.41,19.23,121.5,50.33,16.96,16.96,30.39,35.11,39.09,57.93,1.51,3.95,2.42,9.99,2.53,16.6-.37,15.42-9.42,38.9-15.79,51.84-18.66,38.1-30.27,58.16-55.59,90.97-9.68,12.54-25.51,32.85-40.5,46.86-18.9,17.66-36.49,27.83-38.79,28.05-3.94.72-8.08,1.1-12.46,1.1-47.45,0-90.41-19.23-121.5-50.33-31.1-31.09-50.33-74.05-50.33-121.5s19.23-90.41,50.33-121.5c31.1-31.1,74.05-50.33,121.5-50.33"/>
  <path class="cls-1" d="M529.03,421.43c1.63-8.74-10.03-24.48-17.03-35.17-21.35-26.02-42.25-55.47-67.65-80.86-25.4-25.4-51.39-50.97-69.12-64.61-11.4-9.71-28.71-22.43-34.3-19.82-3.31,1.54-13.43,8.25-21.86,16.68-25.4,25.4-41.11,60.48-41.11,99.24s15.71,73.84,41.11,99.24c25.4,25.4,60.48,41.11,99.24,41.11s72.2-17.46,99.24-41.11c4.96-4.34,11.17-13.13,11.48-14.69Z"/>
</svg>